<svg xmlns="http://www.w3.org/2000/svg"  viewBox="0 0 100 100" width="100px" height="100px" baseProfile="basic"><path fill="#f9dbd2" d="M50,12c-20.987,0-38,17.013-38,38s17.013,38,38,38s38-17.013,38-38S70.987,12,50,12z"/><path fill="#f1bc19" d="M78,13c-0.552,0-1,0.448-1,1s0.448,1,1,1s1-0.448,1-1S78.552,13,78,13z"/><path fill="#f1bc19" d="M84,12c-2.209,0-4,1.791-4,4s1.791,4,4,4s4-1.791,4-4S86.209,12,84,12z"/><path fill="#f1bc19" d="M86,30c-0.552,0-1,0.448-1,1s0.448,1,1,1s1-0.448,1-1S86.552,30,86,30z"/><path fill="#ee3e54" d="M14,24c-1.105,0-2,0.895-2,2s0.895,2,2,2s2-0.895,2-2S15.105,24,14,24z"/><path fill="#fbcd59" d="M78,75c-1.105,0-2,0.895-2,2s0.895,2,2,2s2-0.895,2-2S79.105,75,78,75z M17,74 c-2.209,0-4,1.791-4,4s1.791,4,4,4s4-1.791,4-4S19.209,74,17,74z"/><path fill="#ee3e54" d="M24,81c-1.105,0-2,0.895-2,2s0.895,2,2,2s2-0.895,2-2S25.105,81,24,81z"/><path fill="#ef9922" d="M18.293,49.662c3.5,2.25,5.125,1.125,7.875-1.625c2.375-1.875,3.375-0.375,3.375-0.375l0.875,4 l6-7.25c2.625-3.5,4.125-1.875,4.625-0.125c1.25,5.375,3.625,8.125,3.625,8.125l8.278-14.546c0.365-0.642,0.937-1.166,1.642-1.383 c0.95-0.292,1.63,0.094,2.204,0.429c0.922,0.537,1.5,1.373,1.481,2.44l-0.356,19.435l9.25-30.125c0,0,1.125-0.5,4.125,0 c2,0.25,2.661,3.805,2.5,5.25c-1,9-2,21.375-2,21.375l0.814-1.119c1.137-1.564,2.795-2.702,4.688-3.095 c0.683-0.142,1.314-0.214,1.809-0.251c0.576-0.043,1.063,0.42,1.063,0.998l-0.375,4.092c-1.852-0.143-3.485,0.277-5,1l-1.452,3.61 c-0.51,0.976-1.713,1.356-2.691,0.85l-4.856-2.46v-6.75l-7.567,21.81c-0.454,1.309-2.07,1.771-3.147,0.9l-3.661-2.96l-0.125-21.375 l-7.625,13.25l-0.658-0.041c-0.811-0.051-1.511-0.587-1.771-1.358l-3.571-10.601c0,0-5.125,6.625-8.5,8.375 c-2.375-3.25-2.375-7.75-2.375-7.75s-5.75,5.5-10.375,1C16.168,51.412,17.793,49.412,18.293,49.662z"/><path fill="#472b29" d="M56.338,76.017c-0.611,0-1.213-0.207-1.699-0.601l-3.661-2.96c-0.164-0.132-0.259-0.33-0.26-0.54 l-0.11-18.785l-6.333,11.006c-0.133,0.229-0.382,0.369-0.65,0.349l-0.658-0.041c-1.101-0.068-2.039-0.788-2.391-1.832l-3.162-9.388 c-1.601,1.956-5.234,6.165-7.923,7.559c-0.307,0.161-0.683,0.071-0.887-0.208c-1.667-2.28-2.227-5.092-2.415-6.751 c-2.509,1.834-6.791,3.463-10.258,0.09c-0.114-0.111-0.187-0.258-0.207-0.415c-0.229-1.838,0.857-3.672,1.73-4.29 c0.54-0.383,0.954-0.272,1.152-0.173c0.022,0.011,0.044,0.023,0.065,0.037c3.057,1.964,4.282,1.188,7.001-1.531 c1.135-0.901,2.135-1.253,3.033-1.118c0.927,0.147,1.372,0.778,1.42,0.85c0.048,0.073,0.083,0.154,0.101,0.239l0.568,2.597 l5.084-6.144c1.292-1.724,2.542-2.509,3.701-2.289c0.97,0.179,1.749,1.061,2.136,2.418c0.815,3.504,2.122,5.865,2.882,7.025 l7.74-13.601c0.479-0.842,1.206-1.447,2.045-1.705c1.255-0.388,2.162,0.143,2.762,0.493c1.202,0.7,1.851,1.786,1.828,3.058 l-0.264,14.462l7.79-25.37c0.059-0.194,0.2-0.353,0.385-0.435c0.134-0.06,1.405-0.57,4.524-0.051 c2.59,0.323,3.256,4.437,3.081,6.018c-0.726,6.532-1.459,14.933-1.8,18.974c1.21-1.32,2.765-2.223,4.465-2.575 c0.612-0.128,1.251-0.216,1.901-0.264c0.465-0.034,0.926,0.128,1.269,0.446c0.346,0.321,0.545,0.776,0.545,1.25l-0.378,4.155 c-0.035,0.381-0.371,0.66-0.751,0.635c-1.476-0.116-2.917,0.154-4.4,0.82l-1.349,3.354c-0.716,1.377-2.346,1.892-3.663,1.209 l-4.851-2.457c-0.235-0.119-0.384-0.36-0.384-0.624v-2.597l-6.206,17.887c-0.288,0.83-0.963,1.47-1.808,1.711 C56.836,75.982,56.586,76.017,56.338,76.017z M52.116,71.576l3.403,2.752c0.334,0.269,0.761,0.355,1.176,0.239 c0.412-0.118,0.729-0.419,0.87-0.824l7.567-21.811c0.112-0.323,0.439-0.519,0.777-0.461c0.337,0.057,0.584,0.349,0.584,0.69v6.32 l4.473,2.266c0.639,0.331,1.424,0.083,1.754-0.55l1.424-3.548c0.065-0.162,0.19-0.295,0.348-0.37 c1.567-0.747,3.11-1.114,4.665-1.096l0.314-3.428c-0.003-0.053-0.063-0.127-0.1-0.161c-0.034-0.031-0.106-0.088-0.213-0.075 c-0.589,0.043-1.167,0.123-1.719,0.238c-1.681,0.349-3.196,1.351-4.266,2.821l-0.814,1.119c-0.184,0.253-0.516,0.352-0.809,0.244 c-0.294-0.108-0.48-0.4-0.455-0.713c0.01-0.124,1.012-12.488,2.002-21.396c0.155-1.396-0.553-4.312-1.891-4.479 c-1.921-0.319-3.009-0.212-3.482-0.121l-9.137,29.757c-0.103,0.334-0.433,0.544-0.779,0.486c-0.344-0.055-0.596-0.355-0.589-0.704 l0.355-19.435c0.017-0.951-0.606-1.517-1.133-1.823c-0.59-0.343-1.021-0.555-1.646-0.364c-0.498,0.153-0.938,0.529-1.24,1.061 l-8.278,14.546c-0.112,0.197-0.314,0.328-0.54,0.35c-0.229,0.032-0.449-0.066-0.598-0.238c-0.102-0.118-2.502-2.944-3.777-8.425 c-0.171-0.596-0.54-1.301-1.036-1.393c-0.264-0.038-1.031,0.025-2.347,1.779l-6.021,7.276c-0.171,0.207-0.443,0.294-0.704,0.234 c-0.26-0.063-0.461-0.27-0.519-0.531l-0.836-3.821c-0.076-0.064-0.222-0.16-0.441-0.188c-0.338-0.044-0.936,0.058-1.855,0.784 c-2.659,2.665-4.608,4.162-8.424,1.829c-0.384,0.337-1.131,1.443-1.084,2.67c4.059,3.664,9.004-0.978,9.216-1.18 c0.203-0.193,0.5-0.248,0.758-0.138c0.258,0.109,0.425,0.363,0.426,0.643c0,0.041,0.029,3.852,1.889,6.818 c3.195-2.03,7.685-7.81,7.732-7.871c0.158-0.204,0.414-0.308,0.67-0.262c0.254,0.043,0.465,0.223,0.547,0.467l3.571,10.602 c0.169,0.503,0.621,0.85,1.151,0.883l0.224,0.014l7.408-12.874c0.158-0.273,0.479-0.409,0.786-0.327 c0.306,0.081,0.52,0.356,0.521,0.673L52.116,71.576z"/><path fill="#ef9922" d="M11.429,52.368c-0.758-0.187-1.324-0.952-1.196-1.712c0.234-1.397,1.594-1.286,2.684-1.195 c0.826,0.068,1.439,0.783,1.37,1.597c-0.068,0.813-0.783,1.411-1.619,1.35C12.451,52.389,11.551,52.398,11.429,52.368z"/><path fill="#472b29" d="M12.789,53.111c-0.057,0-0.114-0.002-0.171-0.006c-0.088-0.007-0.279-0.009-0.481-0.012 c-0.578-0.007-0.743-0.014-0.874-0.046l0,0c-1.134-0.278-1.905-1.404-1.719-2.509c0.341-2.032,2.353-1.869,3.432-1.776 c0.59,0.049,1.124,0.323,1.504,0.772c0.375,0.443,0.554,1.005,0.505,1.581C14.889,52.264,13.939,53.111,12.789,53.111z M11.566,51.681c0.116,0.01,0.359,0.011,0.588,0.014c0.243,0.003,0.471,0.007,0.57,0.016c0.434,0.006,0.829-0.28,0.865-0.711 c0.018-0.204-0.046-0.402-0.18-0.561c-0.138-0.163-0.333-0.263-0.55-0.281c-1.454-0.117-1.834,0.001-1.936,0.614 C10.86,51.146,11.159,51.564,11.566,51.681z"/></svg>